<svg version="1.1" xmlns="http://www.w3.org/2000/svg" xmlns:xlink="http://www.w3.org/1999/xlink" width="39" height="44">
	<g id="dp_dp001">
		<path id="dp_path002" fill="white" fill-rule="evenodd" d="M 0.645333,8.64933 C 5.676,11.7093 9.41733,16.8347 10.52,23.0893 C 11.6227,29.344 9.86133,35.4427 6.18133,40.04 Z "/>
		<path id="dp_path003" fill="#26c6e7" fill-rule="evenodd" d="M 17.0733,0.246667 C 15.8067,0.244 14.5213,0.352 13.2307,0.58 C 7.95867,1.512 3.46933,4.28 0.301333,8.11067 L 6.04667,40.768 C 10.332,43.2813 15.4947,44.344 20.7667,43.412 C 32.5707,41.3267 40.4507,30.048 38.3707,18.22 C 36.516,7.68533 27.3867,0.269333 17.0733,0.246667 Z M 0.674667,8.76133 C 5.676,11.8093 9.39467,16.9147 10.492,23.1453 C 11.588,29.376 9.83733,35.4507 6.17867,40.0307 Z "/>
	</g>
</svg>