<?xml version="1.0" encoding="UTF-8" standalone="no"?>
<svg version="1.1" xmlns="http://www.w3.org/2000/svg" xmlns:xlink="http://www.w3.org/1999/xlink" width="432" height="490">
	<g id="dp_dp001" transform="matrix(1,0,0,1,-4.00533,-5.00667)">
		<path id="dp_path002" fill="white" fill-rule="evenodd" d="M 7.60933,99.6493 C 64.2773,134.127 106.427,191.86 118.851,262.319 C 131.273,332.779 111.437,401.48 69.976,453.26 Z "/>
		<path id="dp_path003" fill="#26c6e7" fill-rule="evenodd" d="M 192.669,5 C 178.403,4.968 163.929,6.18667 149.387,8.75733 C 89.996,19.252 39.4333,50.4373 3.73867,93.58 L 68.46,461.468 C 116.729,489.776 174.888,501.739 234.28,491.243 C 367.24,467.749 456.011,340.705 432.572,207.464 C 411.688,88.7973 308.853,5.25867 192.669,5 Z M 7.952,100.908 C 64.2827,135.252 106.179,192.761 118.529,262.947 C 130.877,333.133 111.16,401.568 69.948,453.148 Z "/>
	</g>
</svg>